<?xml version="1.0" standalone="no"?>
<!DOCTYPE svg PUBLIC "-//W3C//DTD SVG 20010904//EN"
 "http://www.w3.org/TR/2001/REC-SVG-20010904/DTD/svg10.dtd">
<svg version="1.0" xmlns="http://www.w3.org/2000/svg"
 width="953.000000pt" height="1280.000000pt" viewBox="0 0 953.000000 1280.000000"
 preserveAspectRatio="xMidYMid meet">
<g transform="translate(0.000000,1280.000000) scale(0.100000,-0.100000)"
fill="#000000" stroke="none">
<path d="M5260 12449 c-386 -25 -602 -47 -940 -95 -243 -36 -503 -84 -781
-145 -130 -29 -243 -50 -251 -46 -9 3 -36 37 -62 76 -113 170 -228 214 -382
146 -139 -61 -492 -344 -624 -499 -36 -42 -81 -89 -100 -105 -19 -15 -152 -83
-295 -151 -921 -435 -1137 -562 -1380 -805 -130 -130 -214 -243 -274 -369 -56
-116 -81 -208 -81 -298 0 -82 23 -122 88 -150 43 -19 52 -20 106 -9 76 16 136
46 327 166 564 355 960 559 1383 712 82 30 85 28 114 -72 43 -143 56 -230 77
-485 18 -208 21 -1092 5 -1399 -5 -108 -14 -293 -20 -411 -10 -202 -15 -287
-40 -670 -22 -331 -66 -903 -100 -1297 -22 -256 -111 -1240 -130 -1448 -12
-121 -25 -267 -31 -325 -5 -58 -14 -154 -19 -215 -40 -438 -54 -601 -81 -950
-69 -896 -83 -1523 -43 -1863 84 -703 564 -1251 1244 -1421 211 -52 491 -64
845 -36 773 63 1572 278 2355 633 580 263 1062 558 1640 1001 791 607 1215
1161 1375 1798 55 216 69 332 69 568 1 181 -2 226 -22 323 -77 383 -246 682
-567 1008 -235 238 -459 411 -805 621 -242 147 -657 360 -890 458 -377 158
-552 235 -685 301 -247 121 -291 158 -289 243 1 113 72 182 706 689 475 380
668 548 917 801 397 404 651 817 756 1229 40 158 55 288 55 466 0 628 -245
1134 -725 1498 -322 243 -826 432 -1335 499 -284 37 -773 50 -1110 28z m65
-964 c236 -28 377 -57 561 -115 581 -184 968 -539 1094 -1003 64 -237 66 -565
3 -817 -129 -524 -507 -1010 -1118 -1438 -169 -119 -423 -269 -715 -425 -382
-203 -623 -351 -846 -518 -145 -109 -176 -147 -201 -243 -23 -86 -7 -177 53
-296 98 -195 232 -271 909 -513 496 -178 730 -275 1040 -432 629 -320 964
-541 1220 -806 124 -129 209 -247 282 -394 95 -189 136 -346 154 -588 25 -331
-33 -621 -181 -917 -169 -336 -414 -625 -771 -907 -152 -120 -351 -243 -392
-243 -10 0 -13 42 -12 212 0 236 -14 360 -65 554 -164 635 -574 1049 -997
1005 -185 -19 -330 -94 -469 -243 -115 -124 -197 -258 -269 -446 -95 -244
-127 -426 -129 -722 -1 -113 2 -239 6 -281 10 -101 48 -244 93 -354 44 -109
50 -131 36 -139 -6 -4 -115 -7 -243 -7 -192 0 -252 3 -343 20 -324 60 -580
205 -714 406 -111 166 -165 387 -196 805 -36 478 -7 1138 101 2325 8 94 19
215 24 270 5 55 14 152 20 215 14 148 28 296 40 440 5 63 14 165 20 225 10
111 22 252 41 490 5 72 14 182 19 245 17 204 41 524 60 800 6 80 15 206 20
280 117 1623 149 2779 88 3212 -13 95 -5 143 26 163 55 36 390 117 618 150
321 45 875 60 1133 30z"/>
</g>
</svg>
